<svg xmlns="http://www.w3.org/2000/svg" xmlns:xlink="http://www.w3.org/1999/xlink" width="500" zoomAndPan="magnify" viewBox="0 0 375 374.999991" height="500" preserveAspectRatio="xMidYMid meet" version="1.2"><defs><clipPath id="76f7b9f950"><path d="M 6.144531 0.261719 L 164.417969 0.261719 L 164.417969 169.84375 L 6.144531 169.84375 Z M 6.144531 0.261719 "/></clipPath><clipPath id="d459229604"><rect x="0" width="176" y="0" height="234"/></clipPath></defs><g id="8ea0c39c8e"><g transform="matrix(1,0,0,1,102,73)"><g clip-path="url(#d459229604)"><g clip-rule="nonzero" clip-path="url(#76f7b9f950)"><path style=" stroke:none;fill-rule:nonzero;fill:#17321a;fill-opacity:1;" d="M 159.832031 52.804688 C 149.125 47.84375 142.199219 37.023438 142.199219 25.230469 L 139.675781 25.230469 L 142.199219 25.203125 C 142.199219 22.417969 141.011719 19.914062 138.917969 18.324219 C 123.445312 6.558594 104.964844 0.351562 85.492188 0.351562 C 66.015625 0.351562 47.53125 6.558594 32.054688 18.320312 C 29.96875 19.90625 28.769531 22.414062 28.769531 25.222656 C 28.769531 37.015625 21.847656 47.835938 11.144531 52.796875 C 8.105469 54.203125 6.144531 57.238281 6.144531 60.53125 L 6.144531 159.484375 C 6.144531 165.363281 10.925781 170.140625 16.800781 170.140625 L 42.632812 170.140625 C 42.632812 170.140625 42.632812 170.140625 42.636719 170.140625 C 42.636719 170.140625 42.636719 170.140625 42.644531 170.140625 L 128.34375 170.140625 C 128.34375 170.140625 128.34375 170.140625 128.351562 170.140625 C 128.351562 170.140625 128.351562 170.140625 128.355469 170.140625 L 154.171875 170.140625 C 160.050781 170.140625 164.828125 165.359375 164.828125 159.484375 L 164.828125 60.53125 C 164.828125 57.242188 162.867188 54.207031 159.824219 52.804688 Z M 110.875 165.101562 C 116.214844 145.34375 134.296875 131.292969 155.042969 131.292969 C 156.667969 131.292969 158.242188 131.40625 159.785156 131.570312 L 159.785156 146.636719 C 158.214844 146.394531 156.632812 146.234375 155.042969 146.234375 C 142.605469 146.234375 131.421875 153.75 126.644531 165.101562 Z M 44.339844 165.101562 C 39.554688 153.75 28.378906 146.234375 15.941406 146.234375 C 14.34375 146.234375 12.757812 146.394531 11.179688 146.636719 L 11.179688 131.570312 C 12.726562 131.40625 14.304688 131.292969 15.941406 131.292969 C 36.6875 131.292969 54.769531 145.34375 60.109375 165.101562 Z M 15.945312 126.242188 C 14.328125 126.242188 12.746094 126.34375 11.1875 126.492188 L 11.1875 110.238281 C 12.761719 110.125 14.351562 110.046875 15.945312 110.046875 C 48.363281 110.046875 76.210938 133.515625 81.886719 165.097656 L 65.300781 165.097656 C 59.832031 142.46875 39.433594 126.242188 15.941406 126.242188 Z M 159.789062 126.488281 C 158.238281 126.339844 156.660156 126.242188 155.050781 126.242188 C 131.5625 126.242188 111.160156 142.46875 105.6875 165.097656 L 89.101562 165.097656 C 94.777344 133.515625 122.625 110.046875 155.050781 110.046875 C 156.636719 110.046875 158.21875 110.125 159.789062 110.238281 L 159.789062 126.492188 Z M 13.265625 57.378906 C 25.753906 51.601562 33.820312 38.976562 33.820312 25.191406 C 33.820312 24 34.289062 22.957031 35.105469 22.335938 C 49.703125 11.253906 67.125 5.394531 85.484375 5.394531 C 103.84375 5.394531 121.273438 11.253906 135.867188 22.335938 C 136.683594 22.957031 137.152344 24 137.152344 25.191406 L 137.152344 25.222656 C 137.152344 38.972656 145.21875 51.59375 157.710938 57.378906 C 158.992188 57.972656 159.785156 59.179688 159.785156 60.53125 L 159.785156 105.175781 C 158.207031 105.074219 156.625 105.003906 155.042969 105.003906 C 125.042969 105.003906 98.703125 123.695312 88.035156 150.554688 L 88.097656 109.222656 C 89.375 91.273438 104.492188 77.203125 122.519531 77.203125 C 125.203125 77.203125 127.839844 77.503906 130.390625 78.105469 C 128.15625 95.066406 113.511719 108.0625 96.175781 108.0625 C 94.785156 108.0625 93.652344 109.195312 93.652344 110.585938 C 93.652344 111.980469 94.785156 113.109375 96.175781 113.109375 C 116.84375 113.109375 134.171875 96.984375 135.628906 76.402344 C 135.710938 75.222656 134.972656 74.152344 133.839844 73.808594 C 130.207031 72.714844 126.394531 72.160156 122.515625 72.160156 C 105.820312 72.160156 91.304688 82.691406 85.574219 97.589844 C 79.84375 82.691406 65.335938 72.160156 48.640625 72.160156 C 44.757812 72.160156 40.949219 72.710938 37.316406 73.808594 C 36.183594 74.144531 35.441406 75.222656 35.527344 76.402344 C 36.988281 96.984375 54.320312 113.109375 74.976562 113.109375 C 76.371094 113.109375 77.503906 111.980469 77.503906 110.585938 C 77.503906 109.195312 76.371094 108.0625 74.976562 108.0625 C 57.644531 108.0625 43.003906 95.066406 40.765625 78.105469 C 43.3125 77.503906 45.957031 77.203125 48.636719 77.203125 C 66.664062 77.203125 81.78125 91.265625 83.050781 109.039062 L 82.980469 150.660156 C 72.339844 123.75 45.960938 105.003906 15.925781 105.003906 C 14.339844 105.003906 12.75 105.074219 11.167969 105.175781 L 11.167969 60.53125 C 11.167969 59.179688 11.964844 57.972656 13.242188 57.378906 Z M 11.191406 159.484375 L 11.191406 151.757812 C 12.769531 151.464844 14.351562 151.265625 15.953125 151.265625 C 25.625 151.265625 34.386719 156.699219 38.785156 165.089844 L 16.800781 165.089844 C 13.707031 165.089844 11.1875 162.574219 11.1875 159.480469 Z M 154.183594 165.097656 L 132.214844 165.097656 C 136.613281 156.707031 145.378906 151.269531 155.050781 151.269531 C 156.636719 151.269531 158.21875 151.464844 159.789062 151.757812 L 159.789062 159.484375 C 159.789062 162.578125 157.273438 165.097656 154.179688 165.097656 Z M 154.183594 165.097656 "/></g><path style=" stroke:none;fill-rule:nonzero;fill:#17321a;fill-opacity:1;" d="M 84.121094 82.003906 C 84.542969 82.28125 85.03125 82.425781 85.515625 82.425781 C 86 82.425781 86.492188 82.28125 86.914062 81.996094 C 96.527344 75.578125 102.261719 64.871094 102.261719 53.355469 C 102.261719 41.839844 96.519531 31.101562 86.90625 24.714844 C 86.058594 24.148438 84.964844 24.148438 84.121094 24.714844 C 74.484375 31.070312 68.738281 41.78125 68.738281 53.359375 C 68.738281 64.941406 74.484375 75.621094 84.121094 82.003906 Z M 85.507812 29.90625 C 92.875 35.433594 97.21875 44.082031 97.21875 53.359375 C 97.21875 62.640625 92.871094 71.257812 85.507812 76.8125 C 78.136719 71.289062 73.78125 62.640625 73.78125 53.359375 C 73.78125 44.082031 78.132812 35.410156 85.507812 29.90625 Z M 85.507812 29.90625 "/><path style=" stroke:none;fill-rule:nonzero;fill:#17321a;fill-opacity:1;" d="M 61.539062 66.0625 C 62.027344 66.558594 62.675781 66.808594 63.328125 66.808594 C 63.980469 66.808594 64.613281 66.566406 65.105469 66.074219 C 66.09375 65.089844 66.101562 63.496094 65.117188 62.503906 L 44.113281 41.382812 C 43.128906 40.394531 41.53125 40.386719 40.546875 41.371094 C 39.554688 42.355469 39.550781 43.949219 40.535156 44.941406 Z M 61.539062 66.0625 "/><path style=" stroke:none;fill-rule:nonzero;fill:#17321a;fill-opacity:1;" d="M 61.820312 49.988281 C 61.929688 49.988281 62.039062 49.984375 62.152344 49.964844 C 63.535156 49.789062 64.511719 48.519531 64.328125 47.136719 L 61.648438 26.492188 C 61.472656 25.109375 60.210938 24.132812 58.824219 24.316406 C 57.441406 24.492188 56.464844 25.761719 56.648438 27.144531 L 59.328125 47.789062 C 59.492188 49.066406 60.578125 49.988281 61.828125 49.988281 Z M 61.820312 49.988281 "/><path style=" stroke:none;fill-rule:nonzero;fill:#17321a;fill-opacity:1;" d="M 35.390625 63.179688 L 48.8125 66.546875 C 49.019531 66.601562 49.226562 66.625 49.429688 66.625 C 50.5625 66.625 51.585938 65.859375 51.878906 64.714844 C 52.214844 63.363281 51.398438 61.996094 50.039062 61.652344 L 36.617188 58.285156 C 35.269531 57.953125 33.898438 58.765625 33.554688 60.125 C 33.214844 61.472656 34.03125 62.84375 35.390625 63.1875 Z M 35.390625 63.179688 "/><path style=" stroke:none;fill-rule:nonzero;fill:#17321a;fill-opacity:1;" d="M 107.667969 66.808594 C 108.3125 66.808594 108.964844 66.558594 109.457031 66.0625 L 130.460938 44.941406 C 131.445312 43.949219 131.4375 42.355469 130.449219 41.371094 C 129.464844 40.386719 127.863281 40.394531 126.882812 41.382812 L 105.878906 62.503906 C 104.894531 63.496094 104.902344 65.089844 105.890625 66.074219 C 106.382812 66.566406 107.027344 66.808594 107.667969 66.808594 Z M 107.667969 66.808594 "/><path style=" stroke:none;fill-rule:nonzero;fill:#17321a;fill-opacity:1;" d="M 108.839844 49.964844 C 108.953125 49.976562 109.0625 49.988281 109.171875 49.988281 C 110.425781 49.988281 111.507812 49.066406 111.675781 47.789062 L 114.351562 27.144531 C 114.53125 25.761719 113.558594 24.492188 112.179688 24.316406 C 110.785156 24.132812 109.527344 25.109375 109.351562 26.492188 L 106.671875 47.136719 C 106.496094 48.519531 107.464844 49.789062 108.847656 49.964844 Z M 108.839844 49.964844 "/><path style=" stroke:none;fill-rule:nonzero;fill:#17321a;fill-opacity:1;" d="M 119.117188 64.710938 C 119.410156 65.855469 120.433594 66.617188 121.566406 66.617188 C 121.765625 66.617188 121.972656 66.59375 122.183594 66.542969 L 135.605469 63.175781 C 136.957031 62.835938 137.78125 61.460938 137.441406 60.109375 C 137.105469 58.761719 135.730469 57.949219 134.378906 58.273438 L 120.953125 61.640625 C 119.605469 61.976562 118.78125 63.351562 119.117188 64.703125 Z M 119.117188 64.710938 "/><g style="fill:#17321a;fill-opacity:1;"><g transform="translate(0.891505, 217.719945)"><path style="stroke:none" d="M 26.265625 -20.9375 C 26.265625 -19.144531 25.851562 -17.507812 25.03125 -16.03125 C 24.207031 -14.550781 22.941406 -13.351562 21.234375 -12.4375 C 19.535156 -11.53125 17.425781 -11.078125 14.90625 -11.078125 L 10.25 -11.078125 L 10.25 0 L 2.734375 0 L 2.734375 -30.875 L 14.90625 -30.875 C 17.375 -30.875 19.457031 -30.445312 21.15625 -29.59375 C 22.851562 -28.75 24.128906 -27.578125 24.984375 -26.078125 C 25.835938 -24.585938 26.265625 -22.875 26.265625 -20.9375 Z M 14.34375 -17.0625 C 15.78125 -17.0625 16.847656 -17.398438 17.546875 -18.078125 C 18.253906 -18.753906 18.609375 -19.707031 18.609375 -20.9375 C 18.609375 -22.164062 18.253906 -23.117188 17.546875 -23.796875 C 16.847656 -24.472656 15.78125 -24.8125 14.34375 -24.8125 L 10.25 -24.8125 L 10.25 -17.0625 Z M 14.34375 -17.0625 "/></g></g><g style="fill:#17321a;fill-opacity:1;"><g transform="translate(33.210609, 217.719945)"><path style="stroke:none" d="M 29.46875 -30.875 L 29.46875 0 L 21.953125 0 L 21.953125 -12.71875 L 10.25 -12.71875 L 10.25 0 L 2.734375 0 L 2.734375 -30.875 L 10.25 -30.875 L 10.25 -18.78125 L 21.953125 -18.78125 L 21.953125 -30.875 Z M 29.46875 -30.875 "/></g></g><g style="fill:#17321a;fill-opacity:1;"><g transform="translate(70.234375, 217.719945)"><path style="stroke:none" d="M 17.328125 0.3125 C 14.421875 0.3125 11.757812 -0.359375 9.34375 -1.703125 C 6.925781 -3.054688 5.003906 -4.941406 3.578125 -7.359375 C 2.160156 -9.785156 1.453125 -12.507812 1.453125 -15.53125 C 1.453125 -18.550781 2.160156 -21.257812 3.578125 -23.65625 C 5.003906 -26.0625 6.925781 -27.9375 9.34375 -29.28125 C 11.757812 -30.632812 14.421875 -31.3125 17.328125 -31.3125 C 20.234375 -31.3125 22.894531 -30.632812 25.3125 -29.28125 C 27.726562 -27.9375 29.632812 -26.0625 31.03125 -23.65625 C 32.425781 -21.257812 33.125 -18.550781 33.125 -15.53125 C 33.125 -12.507812 32.414062 -9.785156 31 -7.359375 C 29.59375 -4.941406 27.6875 -3.054688 25.28125 -1.703125 C 22.882812 -0.359375 20.234375 0.3125 17.328125 0.3125 Z M 17.328125 -6.546875 C 19.796875 -6.546875 21.769531 -7.367188 23.25 -9.015625 C 24.726562 -10.660156 25.46875 -12.832031 25.46875 -15.53125 C 25.46875 -18.25 24.726562 -20.421875 23.25 -22.046875 C 21.769531 -23.679688 19.796875 -24.5 17.328125 -24.5 C 14.835938 -24.5 12.851562 -23.691406 11.375 -22.078125 C 9.894531 -20.460938 9.15625 -18.28125 9.15625 -15.53125 C 9.15625 -12.800781 9.894531 -10.617188 11.375 -8.984375 C 12.851562 -7.359375 14.835938 -6.546875 17.328125 -6.546875 Z M 17.328125 -6.546875 "/></g></g><g style="fill:#17321a;fill-opacity:1;"><g transform="translate(109.67644, 217.719945)"><path style="stroke:none" d="M 17.328125 0.3125 C 14.421875 0.3125 11.757812 -0.359375 9.34375 -1.703125 C 6.925781 -3.054688 5.003906 -4.941406 3.578125 -7.359375 C 2.160156 -9.785156 1.453125 -12.507812 1.453125 -15.53125 C 1.453125 -18.550781 2.160156 -21.257812 3.578125 -23.65625 C 5.003906 -26.0625 6.925781 -27.9375 9.34375 -29.28125 C 11.757812 -30.632812 14.421875 -31.3125 17.328125 -31.3125 C 20.234375 -31.3125 22.894531 -30.632812 25.3125 -29.28125 C 27.726562 -27.9375 29.632812 -26.0625 31.03125 -23.65625 C 32.425781 -21.257812 33.125 -18.550781 33.125 -15.53125 C 33.125 -12.507812 32.414062 -9.785156 31 -7.359375 C 29.59375 -4.941406 27.6875 -3.054688 25.28125 -1.703125 C 22.882812 -0.359375 20.234375 0.3125 17.328125 0.3125 Z M 17.328125 -6.546875 C 19.796875 -6.546875 21.769531 -7.367188 23.25 -9.015625 C 24.726562 -10.660156 25.46875 -12.832031 25.46875 -15.53125 C 25.46875 -18.25 24.726562 -20.421875 23.25 -22.046875 C 21.769531 -23.679688 19.796875 -24.5 17.328125 -24.5 C 14.835938 -24.5 12.851562 -23.691406 11.375 -22.078125 C 9.894531 -20.460938 9.15625 -18.28125 9.15625 -15.53125 C 9.15625 -12.800781 9.894531 -10.617188 11.375 -8.984375 C 12.851562 -7.359375 14.835938 -6.546875 17.328125 -6.546875 Z M 17.328125 -6.546875 "/></g></g><g style="fill:#17321a;fill-opacity:1;"><g transform="translate(149.118505, 217.719945)"><path style="stroke:none" d="M 10.25 -5.8125 L 20.09375 -5.8125 L 20.09375 0 L 2.734375 0 L 2.734375 -30.875 L 10.25 -30.875 Z M 10.25 -5.8125 "/></g></g></g></g></g></svg>